<mxfile host="app.diagrams.net" agent="Mozilla/5.0 (Windows NT 10.0; Win64; x64) AppleWebKit/537.36 (KHTML, like Gecko) Chrome/131.0.0.0 Safari/537.36 Edg/131.0.0.0" version="26.0.4">
  <diagram name="Page-1" id="s98k8_jG8i099Smvk9J6">
    <mxGraphModel dx="1042" dy="565" grid="1" gridSize="10" guides="1" tooltips="1" connect="1" arrows="1" fold="1" page="1" pageScale="1" pageWidth="850" pageHeight="1100" math="0" shadow="0">
      <root>
        <mxCell id="0" />
        <mxCell id="1" parent="0" />
        <mxCell id="TzLA1LL_tbjijA72b5UA-2" value="Region" style="points=[[0,0],[0.25,0],[0.5,0],[0.75,0],[1,0],[1,0.25],[1,0.5],[1,0.75],[1,1],[0.75,1],[0.5,1],[0.25,1],[0,1],[0,0.75],[0,0.5],[0,0.25]];outlineConnect=0;gradientColor=none;html=1;whiteSpace=wrap;fontSize=12;fontStyle=0;container=1;pointerEvents=0;collapsible=0;recursiveResize=0;shape=mxgraph.aws4.group;grIcon=mxgraph.aws4.group_region;strokeColor=#00A4A6;fillColor=none;verticalAlign=top;align=left;spacingLeft=30;fontColor=#147EBA;dashed=1;" vertex="1" parent="1">
          <mxGeometry x="160" y="40" width="640" height="520" as="geometry" />
        </mxCell>
        <mxCell id="TzLA1LL_tbjijA72b5UA-4" value="" style="outlineConnect=0;dashed=0;verticalLabelPosition=bottom;verticalAlign=top;align=center;html=1;shape=mxgraph.aws3.lambda_function;fillColor=#F58534;gradientColor=none;" vertex="1" parent="TzLA1LL_tbjijA72b5UA-2">
          <mxGeometry x="71.25" y="350" width="55.5" height="50" as="geometry" />
        </mxCell>
        <mxCell id="TzLA1LL_tbjijA72b5UA-15" value="" style="edgeStyle=orthogonalEdgeStyle;rounded=0;orthogonalLoop=1;jettySize=auto;html=1;" edge="1" parent="TzLA1LL_tbjijA72b5UA-2" source="TzLA1LL_tbjijA72b5UA-5" target="TzLA1LL_tbjijA72b5UA-11">
          <mxGeometry relative="1" as="geometry" />
        </mxCell>
        <mxCell id="TzLA1LL_tbjijA72b5UA-17" value="" style="edgeStyle=orthogonalEdgeStyle;rounded=0;orthogonalLoop=1;jettySize=auto;html=1;" edge="1" parent="TzLA1LL_tbjijA72b5UA-2" source="TzLA1LL_tbjijA72b5UA-5" target="TzLA1LL_tbjijA72b5UA-8">
          <mxGeometry relative="1" as="geometry" />
        </mxCell>
        <mxCell id="TzLA1LL_tbjijA72b5UA-5" value="" style="sketch=0;points=[[0,0,0],[0.25,0,0],[0.5,0,0],[0.75,0,0],[1,0,0],[0,1,0],[0.25,1,0],[0.5,1,0],[0.75,1,0],[1,1,0],[0,0.25,0],[0,0.5,0],[0,0.75,0],[1,0.25,0],[1,0.5,0],[1,0.75,0]];outlineConnect=0;fontColor=#232F3E;fillColor=#E7157B;strokeColor=#ffffff;dashed=0;verticalLabelPosition=bottom;verticalAlign=top;align=center;html=1;fontSize=12;fontStyle=0;aspect=fixed;shape=mxgraph.aws4.resourceIcon;resIcon=mxgraph.aws4.sns;" vertex="1" parent="TzLA1LL_tbjijA72b5UA-2">
          <mxGeometry x="225" y="200" width="78" height="78" as="geometry" />
        </mxCell>
        <mxCell id="TzLA1LL_tbjijA72b5UA-6" value="" style="sketch=0;outlineConnect=0;fontColor=#232F3E;gradientColor=none;fillColor=#DD344C;strokeColor=none;dashed=0;verticalLabelPosition=bottom;verticalAlign=top;align=center;html=1;fontSize=12;fontStyle=0;aspect=fixed;shape=mxgraph.aws4.email;" vertex="1" parent="TzLA1LL_tbjijA72b5UA-2">
          <mxGeometry x="540" y="273" width="78" height="69" as="geometry" />
        </mxCell>
        <mxCell id="TzLA1LL_tbjijA72b5UA-19" value="" style="edgeStyle=orthogonalEdgeStyle;rounded=0;orthogonalLoop=1;jettySize=auto;html=1;" edge="1" parent="TzLA1LL_tbjijA72b5UA-2" source="TzLA1LL_tbjijA72b5UA-7" target="TzLA1LL_tbjijA72b5UA-6">
          <mxGeometry relative="1" as="geometry" />
        </mxCell>
        <mxCell id="TzLA1LL_tbjijA72b5UA-7" value="" style="sketch=0;outlineConnect=0;fontColor=#232F3E;gradientColor=none;fillColor=#E7157B;strokeColor=none;dashed=0;verticalLabelPosition=bottom;verticalAlign=top;align=center;html=1;fontSize=12;fontStyle=0;aspect=fixed;pointerEvents=1;shape=mxgraph.aws4.eventbridge_scheduler;" vertex="1" parent="TzLA1LL_tbjijA72b5UA-2">
          <mxGeometry x="400" y="342" width="58" height="58" as="geometry" />
        </mxCell>
        <mxCell id="TzLA1LL_tbjijA72b5UA-8" value="" style="sketch=0;outlineConnect=0;fontColor=#232F3E;gradientColor=none;fillColor=#E7157B;strokeColor=none;dashed=0;verticalLabelPosition=bottom;verticalAlign=top;align=center;html=1;fontSize=12;fontStyle=0;aspect=fixed;pointerEvents=1;shape=mxgraph.aws4.topic;" vertex="1" parent="TzLA1LL_tbjijA72b5UA-2">
          <mxGeometry x="234.89" y="350" width="58.21" height="50" as="geometry" />
        </mxCell>
        <mxCell id="TzLA1LL_tbjijA72b5UA-14" value="" style="edgeStyle=orthogonalEdgeStyle;rounded=0;orthogonalLoop=1;jettySize=auto;html=1;" edge="1" parent="TzLA1LL_tbjijA72b5UA-2" source="TzLA1LL_tbjijA72b5UA-9" target="TzLA1LL_tbjijA72b5UA-5">
          <mxGeometry relative="1" as="geometry" />
        </mxCell>
        <mxCell id="TzLA1LL_tbjijA72b5UA-16" value="" style="edgeStyle=orthogonalEdgeStyle;rounded=0;orthogonalLoop=1;jettySize=auto;html=1;" edge="1" parent="TzLA1LL_tbjijA72b5UA-2" source="TzLA1LL_tbjijA72b5UA-9" target="TzLA1LL_tbjijA72b5UA-4">
          <mxGeometry relative="1" as="geometry" />
        </mxCell>
        <mxCell id="TzLA1LL_tbjijA72b5UA-9" value="" style="sketch=0;points=[[0,0,0],[0.25,0,0],[0.5,0,0],[0.75,0,0],[1,0,0],[0,1,0],[0.25,1,0],[0.5,1,0],[0.75,1,0],[1,1,0],[0,0.25,0],[0,0.5,0],[0,0.75,0],[1,0.25,0],[1,0.5,0],[1,0.75,0]];outlineConnect=0;fontColor=#232F3E;fillColor=#ED7100;strokeColor=#ffffff;dashed=0;verticalLabelPosition=bottom;verticalAlign=top;align=center;html=1;fontSize=12;fontStyle=0;aspect=fixed;shape=mxgraph.aws4.resourceIcon;resIcon=mxgraph.aws4.lambda;" vertex="1" parent="TzLA1LL_tbjijA72b5UA-2">
          <mxGeometry x="60" y="200" width="78" height="78" as="geometry" />
        </mxCell>
        <mxCell id="TzLA1LL_tbjijA72b5UA-18" value="" style="edgeStyle=orthogonalEdgeStyle;rounded=0;orthogonalLoop=1;jettySize=auto;html=1;" edge="1" parent="TzLA1LL_tbjijA72b5UA-2" source="TzLA1LL_tbjijA72b5UA-11" target="TzLA1LL_tbjijA72b5UA-7">
          <mxGeometry relative="1" as="geometry" />
        </mxCell>
        <mxCell id="TzLA1LL_tbjijA72b5UA-11" value="" style="sketch=0;points=[[0,0,0],[0.25,0,0],[0.5,0,0],[0.75,0,0],[1,0,0],[0,1,0],[0.25,1,0],[0.5,1,0],[0.75,1,0],[1,1,0],[0,0.25,0],[0,0.5,0],[0,0.75,0],[1,0.25,0],[1,0.5,0],[1,0.75,0]];outlineConnect=0;fontColor=#232F3E;fillColor=#E7157B;strokeColor=#ffffff;dashed=0;verticalLabelPosition=bottom;verticalAlign=top;align=center;html=1;fontSize=12;fontStyle=0;aspect=fixed;shape=mxgraph.aws4.resourceIcon;resIcon=mxgraph.aws4.eventbridge;" vertex="1" parent="TzLA1LL_tbjijA72b5UA-2">
          <mxGeometry x="390" y="200" width="78" height="78" as="geometry" />
        </mxCell>
        <mxCell id="TzLA1LL_tbjijA72b5UA-23" value="Lambda" style="text;html=1;align=center;verticalAlign=middle;whiteSpace=wrap;rounded=0;" vertex="1" parent="TzLA1LL_tbjijA72b5UA-2">
          <mxGeometry x="66.75" y="170" width="60" height="30" as="geometry" />
        </mxCell>
        <mxCell id="TzLA1LL_tbjijA72b5UA-24" value="SNS" style="text;html=1;align=center;verticalAlign=middle;whiteSpace=wrap;rounded=0;" vertex="1" parent="TzLA1LL_tbjijA72b5UA-2">
          <mxGeometry x="235" y="170" width="60" height="30" as="geometry" />
        </mxCell>
        <mxCell id="TzLA1LL_tbjijA72b5UA-25" value="EventsBridge" style="text;html=1;align=center;verticalAlign=middle;whiteSpace=wrap;rounded=0;" vertex="1" parent="TzLA1LL_tbjijA72b5UA-2">
          <mxGeometry x="398" y="170" width="60" height="30" as="geometry" />
        </mxCell>
        <mxCell id="TzLA1LL_tbjijA72b5UA-22" value="function to extract and process NBA data" style="text;html=1;align=center;verticalAlign=middle;whiteSpace=wrap;rounded=0;" vertex="1" parent="TzLA1LL_tbjijA72b5UA-2">
          <mxGeometry x="44.629999999999995" y="420" width="108.75" height="30" as="geometry" />
        </mxCell>
        <mxCell id="TzLA1LL_tbjijA72b5UA-20" value="SNS topic" style="text;html=1;align=center;verticalAlign=middle;whiteSpace=wrap;rounded=0;" vertex="1" parent="TzLA1LL_tbjijA72b5UA-2">
          <mxGeometry x="235" y="410" width="60" height="30" as="geometry" />
        </mxCell>
        <mxCell id="TzLA1LL_tbjijA72b5UA-26" value="EventsBridge Rule Scheduler" style="text;html=1;align=center;verticalAlign=middle;whiteSpace=wrap;rounded=0;" vertex="1" parent="TzLA1LL_tbjijA72b5UA-2">
          <mxGeometry x="400" y="410" width="80" height="30" as="geometry" />
        </mxCell>
        <mxCell id="TzLA1LL_tbjijA72b5UA-27" value="Subscribed Email" style="text;html=1;align=center;verticalAlign=middle;whiteSpace=wrap;rounded=0;" vertex="1" parent="TzLA1LL_tbjijA72b5UA-2">
          <mxGeometry x="549" y="243" width="60" height="30" as="geometry" />
        </mxCell>
        <mxCell id="TzLA1LL_tbjijA72b5UA-30" value="&lt;font style=&quot;font-size: 9px;&quot;&gt;api request &amp;amp; response&lt;/font&gt;" style="text;html=1;align=center;verticalAlign=middle;whiteSpace=wrap;rounded=0;" vertex="1" parent="TzLA1LL_tbjijA72b5UA-2">
          <mxGeometry x="-30" y="245" width="70" height="30" as="geometry" />
        </mxCell>
        <mxCell id="TzLA1LL_tbjijA72b5UA-31" value="&lt;font style=&quot;font-size: 9px;&quot;&gt;invoked&lt;/font&gt;" style="text;html=1;align=center;verticalAlign=middle;whiteSpace=wrap;rounded=0;" vertex="1" parent="TzLA1LL_tbjijA72b5UA-2">
          <mxGeometry x="153.38" y="240" width="60" height="30" as="geometry" />
        </mxCell>
        <mxCell id="TzLA1LL_tbjijA72b5UA-32" value="&lt;font style=&quot;font-size: 9px;&quot;&gt;trigger&lt;/font&gt;" style="text;html=1;align=center;verticalAlign=middle;whiteSpace=wrap;rounded=0;" vertex="1" parent="TzLA1LL_tbjijA72b5UA-2">
          <mxGeometry x="320" y="240" width="60" height="30" as="geometry" />
        </mxCell>
        <mxCell id="TzLA1LL_tbjijA72b5UA-33" value="&lt;font style=&quot;font-size: 9px;&quot;&gt;games alert&lt;/font&gt;" style="text;html=1;align=center;verticalAlign=middle;whiteSpace=wrap;rounded=0;" vertex="1" parent="TzLA1LL_tbjijA72b5UA-2">
          <mxGeometry x="570" y="370" width="60" height="30" as="geometry" />
        </mxCell>
        <mxCell id="TzLA1LL_tbjijA72b5UA-12" value="" style="edgeStyle=orthogonalEdgeStyle;rounded=0;orthogonalLoop=1;jettySize=auto;html=1;" edge="1" parent="1" source="TzLA1LL_tbjijA72b5UA-3" target="TzLA1LL_tbjijA72b5UA-9">
          <mxGeometry relative="1" as="geometry" />
        </mxCell>
        <mxCell id="TzLA1LL_tbjijA72b5UA-3" value="" style="image;aspect=fixed;perimeter=ellipsePerimeter;html=1;align=center;shadow=0;dashed=0;fontColor=#4277BB;labelBackgroundColor=default;fontSize=12;spacingTop=3;image=img/lib/ibm/data/data_sources.svg;" vertex="1" parent="1">
          <mxGeometry x="50" y="250" width="60" height="60" as="geometry" />
        </mxCell>
        <mxCell id="TzLA1LL_tbjijA72b5UA-13" value="" style="edgeStyle=orthogonalEdgeStyle;rounded=0;orthogonalLoop=1;jettySize=auto;html=1;" edge="1" parent="1" source="TzLA1LL_tbjijA72b5UA-9" target="TzLA1LL_tbjijA72b5UA-3">
          <mxGeometry relative="1" as="geometry">
            <Array as="points">
              <mxPoint x="165" y="279" />
              <mxPoint x="165" y="280" />
            </Array>
          </mxGeometry>
        </mxCell>
        <mxCell id="TzLA1LL_tbjijA72b5UA-21" value="SportsDataIO API&lt;div&gt;(NBA GamesData)&lt;/div&gt;" style="text;html=1;align=center;verticalAlign=middle;whiteSpace=wrap;rounded=0;" vertex="1" parent="1">
          <mxGeometry x="30" y="320" width="110" height="30" as="geometry" />
        </mxCell>
      </root>
    </mxGraphModel>
  </diagram>
</mxfile>
